<svg width="100.00000000000001" height="100.00000000000001" xmlns="http://www.w3.org/2000/svg">
 <!-- Created with Method Draw - http://github.com/duopixel/Method-Draw/ -->
 <g>
  <title>background</title>
  <rect fill="#fff" id="canvas_background" height="102" width="102" y="-1" x="-1"/>
 </g>
 <g>
  <title>Layer 1</title>
  <path d="m15.326374,47.534981c0.349649,0 1.362972,0.489166 3.846149,1.04895c4.149544,0.935436 10.122196,1.231968 16.433544,1.748249c6.630398,0.542377 12.241978,0.495865 17.132847,0.699299c4.206703,0.174976 9.079002,0.524292 12.93705,0.699299c3.842194,0.174286 8.02887,0.524258 11.538445,0.699299c3.142944,0.156754 5.944046,0.349651 8.041946,0.349651c1.748253,0 3.146851,0 3.846146,0c0.699303,0 1.398605,0 1.398605,0l0,-0.349651" id="svg_1" stroke-width="5" stroke="#000" fill="none"/>
  <path d="m90.850754,51.381126c-0.349648,0 -1.076279,-0.314167 -2.447548,-1.398598c-2.141991,-1.693939 -5.123764,-3.697899 -9.090897,-5.94405c-2.721436,-1.540848 -4.96434,-2.319218 -6.993004,-3.496498c-2.180748,-1.265537 -3.813469,-2.497849 -5.944046,-3.846149c-1.722794,-1.09024 -2.768391,-1.533871 -3.146847,-2.447548c-0.133804,-0.323036 -0.43169,-0.752529 -0.699303,-1.398602c-0.378456,-0.913677 -1.450817,-1.214775 -1.748249,-1.398598c-0.665073,-0.411039 -0.647808,-0.759823 -1.04895,-1.04895c-0.634262,-0.45715 -1.184219,-0.670492 -2.097897,-1.04895c-0.646072,-0.267612 -1.398602,-0.349649 -1.748249,-0.699299l-0.349651,0" id="svg_3" stroke-width="5" stroke="#000" fill="none"/>
  <path d="m89.452156,53.129379c-0.349655,0 -0.699303,0 -1.398598,0c-1.04895,0 -2.486473,-0.124111 -4.895103,0.699299c-3.563377,1.218166 -8.001068,2.660767 -12.937042,3.496498c-5.558823,0.941193 -10.183197,1.238358 -14.335648,2.447552c-3.184788,0.92741 -6.264236,1.897366 -9.440548,2.447548c-2.777607,0.481121 -4.195801,0.699299 -4.8951,0.699299l-0.349651,0.349651l0.349651,0.349648l0,0" id="svg_4" stroke-width="5" stroke="#000" fill="none"/>
 </g>
</svg>