<svg width="100" height="100" xmlns="http://www.w3.org/2000/svg">
 <!-- Created with Method Draw - http://github.com/duopixel/Method-Draw/ -->
 <g>
  <title>Layer 1</title>
  <path d="m28.184088,79.992538c0.149254,0 0.28598,0.044846 0.746269,0.149254c1.173512,0.266182 3.280027,0.469612 5.970148,0.895515c2.981335,0.472015 5.959705,0.826706 9.104473,1.194031c3.27486,0.382523 5.961521,0.521774 8.208954,0.746269c2.232666,0.223022 4.337666,0.361359 6.119404,0.597015c1.654297,0.218796 2.986427,0.437294 4.179104,0.597015c1.046043,0.140083 2.069691,0.37973 3.134327,0.597015c1.179016,0.240631 1.9403,0.298508 2.537315,0.298508c0.447754,0 0.597008,0 0.597008,0c0.149254,0 0.298508,0 0.597015,0c0.149254,0 0.22332,-0.284744 0.298508,-0.895523c0.109421,-0.888817 0.090515,-2.377121 0.298508,-4.477608c0.265137,-2.67762 0.597015,-5.970154 0.597015,-9.253731c0,-2.985077 -0.05777,-5.965408 -0.298508,-9.253731c-0.196457,-2.683525 -0.447472,-5.060692 -0.597015,-7.462685c-0.129837,-2.085514 -0.192703,-3.88435 -0.298508,-5.373135c-0.074814,-1.052727 -0.298508,-2.08955 -0.298508,-2.835819c0,-0.447762 -0.07753,-0.901306 -0.149254,-1.343281c-0.0756,-0.465889 -0.149254,-0.895523 -0.149254,-1.044777c0,-0.298508 0.071724,-0.752052 0,-1.194031c-0.0756,-0.465889 -0.058075,-1.348877 -0.149254,-2.08955c-0.075188,-0.610779 -0.149254,-1.044777 -0.149254,-1.641792c0,-0.597015 0,-1.194031 0,-1.641788l0,-0.298508l0,-0.149254l-0.149246,0" id="svg_20" fill-opacity="null" stroke-opacity="null" stroke-width="5" stroke="#000" fill="none"/>
  <path d="m28.034834,37.007469c-0.149254,0.298508 -0.169041,1.192352 -0.298508,2.835823c-0.17621,2.236843 -0.198406,4.938389 -0.597013,7.611938c-0.358286,2.403111 -0.715567,5.080585 -1.194031,7.462685c-0.420826,2.095142 -0.675035,3.893936 -1.044775,5.671638c-0.375935,1.807487 -0.745373,3.408287 -0.895523,4.776115c-0.097717,0.890175 -0.223625,1.781784 -0.298508,2.686569c-0.073864,0.892471 -0.149254,1.9403 -0.149254,2.835823c0,0.746269 0,1.343285 0,1.791046c0,0.447754 0,1.044769 0,1.343277c0,0.447762 0.149254,0.895523 0.149254,1.343285c0,0.447762 0.22183,0.719963 0.298508,1.044777c0.068583,0.29052 0,0.597015 0,1.194031c0,0.447762 0.035021,0.918243 0.149254,1.194031c0.080776,0.195007 0.149254,0.298508 0.149254,0.447762c0,0.149254 -0.105539,0.342224 0,0.447762c0.105539,0.105537 0.217731,-0.045753 0.298508,0.149254c0.057117,0.137894 0.149254,0.149254 0.298508,0.149254c0,0 0.306217,0.053619 0.895521,0.149254c0.465887,0.0756 1.184772,0.223625 2.089552,0.298508c0.892471,0.07386 1.661753,-0.171448 2.38806,0c0.324812,0.076675 0.447762,0.149246 0.597015,0.149246l-0.298508,-0.149246l-0.298508,-0.149254" id="svg_21" fill-opacity="null" stroke-opacity="null" stroke-width="5" stroke="#000" fill="none"/>
  <path d="m27.288567,37.305977c0.746267,0 2.086056,0.223843 4.47761,0.298508c2.685259,0.083832 5.519281,-0.074596 8.208952,-0.149254c2.536339,-0.0704 4.626865,0 6.567165,0c1.940296,0 3.731342,-0.149254 5.522385,-0.149254c1.791046,0 3.278,-0.074535 4.776119,-0.149254c1.490685,-0.074348 2.992596,-0.113834 4.477612,-0.447762c1.200794,-0.270016 2.068943,-0.518723 2.985073,-0.746265c0.881104,-0.218845 1.641792,-0.447762 2.388062,-0.447762c0.746269,0 1.194031,0 1.641792,0c0.447754,0 0.895515,0 1.194023,0l0.149254,0l0,-0.149254" id="svg_22" fill-opacity="null" stroke-opacity="null" stroke-width="5" stroke="#000" fill="none"/>
  <path d="m26.990059,36.410458c0.298508,-0.298508 0.833445,-0.829548 1.492537,-1.791046c0.868828,-1.267464 1.755503,-3.008352 3.134327,-5.074625c1.3099,-1.962988 3.222048,-4.100952 5.074625,-6.268656c1.726471,-2.020149 3.099262,-4.05187 4.328358,-5.970148c0.870964,-1.359335 1.823963,-2.362875 2.388062,-3.134328c0.317638,-0.434397 0.700352,-0.956853 1.194027,-1.64179c0.390285,-0.54149 0.597015,-1.044776 1.044777,-1.492537c0.298508,-0.298508 0.597015,-0.746268 1.044777,-1.19403c0.298508,-0.298508 0.624779,-0.700381 0.895519,-0.895522c0.342468,-0.246839 0.491478,-0.491476 0.597015,-0.597014c0.105537,-0.105538 0.298508,-0.298508 0.597015,-0.447762c0.298508,-0.149254 0.451756,-0.413469 0.597015,-0.447761c0.324814,-0.076678 0.505505,-0.435464 0.895523,-0.597015c0.137894,-0.057117 0.298508,-0.149253 0.298508,-0.149253c0.149254,0.149253 0.303631,0.443691 0.895519,1.194029c1.053951,1.336098 2.19651,2.871357 3.582088,4.477611c1.44928,1.6801 2.813618,3.027237 4.179104,4.776118c1.324715,1.696667 2.421795,3.408825 3.582088,5.074627c0.922733,1.324739 1.874496,2.777567 2.686569,4.029848c0.836075,1.289305 1.254654,2.206423 1.791046,3.283583c0.506683,1.017506 0.682014,1.810894 0.895523,2.388058c0.115791,0.313013 0.2985,0.597017 0.2985,0.597017l0,0.149254" id="svg_23" fill-opacity="null" stroke-opacity="null" stroke-width="5" stroke="#000" fill="none"/>
  <path d="m51.169159,56.708958c0.14925,0.149254 0.23727,0.482533 0.597012,1.044777c0.515072,0.805012 1.159996,1.659634 1.641792,2.537312c0.418793,0.762901 0.746269,1.492538 0.746269,2.089554c0,0.746269 0.061237,1.378052 -0.298508,1.9403c-0.515072,0.805016 -1.403786,1.504875 -2.388062,1.940292c-1.125561,0.497917 -2.381092,0.671501 -3.582088,0.746269c-1.191719,0.074196 -2.2453,0.039986 -3.283581,-0.149254c-1.353748,-0.246735 -2.619202,-0.754105 -3.731342,-1.492538c-1.146366,-0.761154 -2.168251,-2.037441 -3.134327,-3.582085c-0.814838,-1.302834 -0.969894,-2.378799 -1.044777,-3.283581c-0.073864,-0.892471 0.063915,-1.854233 0.746269,-2.686569c0.535282,-0.652935 1.333237,-1.218239 2.388058,-1.641788c1.183388,-0.475174 2.540062,-0.569378 4.179104,-0.746269c1.196377,-0.129116 2.394772,-0.258671 3.283585,-0.149254c0.610775,0.075191 1.22562,0.405094 1.641788,0.746269c0.652939,0.535282 1.152832,0.928768 1.641792,1.492538c0.276596,0.318916 0.677814,0.701889 0.895519,1.194027c0.248955,0.562782 0.149254,0.895523 0.149254,1.343285l-0.298508,0.447762l-0.597012,0.597015" id="svg_24" fill-opacity="null" stroke-opacity="null" stroke-width="5" stroke="#000" fill="none"/>
 </g>
</svg>