<svg width="100" height="100" xmlns="http://www.w3.org/2000/svg">
 <!-- Created with Method Draw - http://github.com/duopixel/Method-Draw/ -->
 <g>
  <title>background</title>
  <rect fill="#fff" id="canvas_background" height="102" width="102" y="-1" x="-1"/>
  <g display="none" overflow="visible" y="0" x="0" height="100%" width="100%" id="canvasGrid">
   <rect fill="url(#gridpattern)" stroke-width="0" y="0" x="0" height="100%" width="100%"/>
  </g>
 </g>
 <g>
  <title>Layer 1</title>
  <path d="m87.043015,46.112915c-0.645164,-0.322582 -1.290321,-0.645161 -2.258064,-0.967743c-0.967743,-0.322578 -2.580643,-0.645161 -4.838707,-0.645161c-2.258064,0 -5.483871,0 -8.064522,0c-1.935478,0 -4.19355,0 -5.80645,0c-1.6129,0 -3.225807,0 -4.838711,0c-1.612904,0 -3.853783,-0.160885 -6.129032,-0.322582c-1.930614,-0.137203 -4.178493,-0.160976 -6.774193,-0.322578c-2.575661,-0.160355 -5.488857,-0.160355 -8.064518,0c-2.595703,0.161602 -4.838711,0.322578 -6.774193,0.322578c-1.612904,0 -2.903227,0 -3.548388,0c-0.967743,0 -1.935484,0 -2.580647,0c-0.967741,0 -1.935484,0 -2.903225,0c-0.967743,0 -2.258064,0 -2.903227,0c-0.645161,0 -1.290321,0 -1.935484,0c-0.645161,0 -0.967741,0 -1.612904,0c-0.32258,0 -0.645161,0 -0.967741,0c0,0 -0.32258,0 -0.645161,0c0,0 -0.322582,0 -0.645163,0l0,-0.322578" id="svg_1" stroke-width="5" stroke="#000" fill="none"/>
  <path d="m14.462365,43.20969c0.32258,-0.322582 1.853789,-0.76495 3.225806,-1.612904c1.840754,-1.13765 3.870968,-1.93549 6.129032,-2.903229c2.258066,-0.967743 4.768723,-2.066513 7.096775,-3.225803c2.199127,-1.095089 4.477581,-2.016758 6.451614,-2.903229c1.584698,-0.711634 3.485695,-1.757549 4.838711,-2.258062c1.247417,-0.461451 2.542423,-0.706541 3.548386,-1.290323c1.247742,-0.724092 2.180992,-1.101902 3.225807,-1.612904c0.916363,-0.448177 1.897263,-1.029121 2.903225,-1.612904c0.623871,-0.362045 1.092541,-0.941164 1.935486,-1.290323c0.298023,-0.123446 0.094479,-0.094482 0.322578,-0.32258c0.2281,-0.2281 0.645161,0 0.967743,-0.32258l0,0" id="svg_2" stroke-width="5" stroke="#000" fill="none"/>
  <path d="m14.784945,43.20969c0.322581,0 0.836774,0.810646 1.612905,1.290321c0.867739,0.536293 2.133194,1.215675 3.870968,1.935486c2.457582,1.017963 5.498419,1.886581 7.741936,2.580643c1.949043,0.602962 3.548388,1.290325 5.161289,1.935486c1.612904,0.645161 3.51244,1.67551 5.161293,2.580643c1.264614,0.694206 2.71357,0.635017 3.870968,1.290325c0.793964,0.449535 1.612904,1.290321 2.580643,1.935482c0.967743,0.645161 1.984596,1.043434 2.580647,1.290325c0.842941,0.349159 1.195309,0.756832 1.935486,1.290321c0.585159,0.421757 1.290318,0.645161 1.6129,0.967743c0.322582,0.322582 1.027744,0.545986 1.612904,0.967743c0.370087,0.266743 0.546272,0.470581 0.967743,0.645161c0.298027,0.123447 0.322582,0 0.645161,0l0.322582,0.322578l0,0" id="svg_3" stroke-width="5" stroke="#000" fill="none"/>
 </g>
</svg>